<svg width="325" height="104" viewBox="0 0 325 104" fill="none" xmlns="http://www.w3.org/2000/svg">
<path d="M137.04 48V21.36H126.288V14.16H156.624V21.36H145.872V48H137.04ZM168.699 48.528C165.435 48.528 163.067 47.712 161.595 46.08C160.123 44.416 159.387 41.92 159.387 38.592V14.16H167.931V38.304C167.931 39.008 168.027 39.616 168.219 40.128C168.443 40.64 168.779 41.024 169.227 41.28C169.707 41.536 170.299 41.664 171.003 41.664C171.323 41.664 171.643 41.648 171.963 41.616C172.315 41.584 172.651 41.536 172.971 41.472L172.875 48C172.235 48.192 171.563 48.32 170.859 48.384C170.187 48.48 169.467 48.528 168.699 48.528ZM188.704 48.528C185.824 48.528 183.328 48.032 181.216 47.04C179.136 46.016 177.536 44.576 176.416 42.72C175.296 40.864 174.736 38.672 174.736 36.144C174.736 33.712 175.264 31.584 176.32 29.76C177.408 27.904 178.88 26.464 180.736 25.44C182.624 24.384 184.768 23.856 187.168 23.856C189.568 23.856 191.632 24.352 193.36 25.344C195.088 26.336 196.416 27.76 197.344 29.616C198.304 31.44 198.784 33.584 198.784 36.048V37.92H181.888V33.888H192.544L191.776 34.512C191.776 32.784 191.408 31.504 190.672 30.672C189.936 29.808 188.896 29.376 187.552 29.376C186.56 29.376 185.696 29.616 184.96 30.096C184.256 30.544 183.712 31.216 183.328 32.112C182.944 33.008 182.752 34.128 182.752 35.472V35.904C182.752 37.408 182.96 38.624 183.376 39.552C183.824 40.48 184.512 41.168 185.44 41.616C186.368 42.032 187.536 42.24 188.944 42.24C190.16 42.24 191.424 42.064 192.736 41.712C194.08 41.328 195.264 40.784 196.288 40.08L198.4 45.696C197.184 46.56 195.696 47.248 193.936 47.76C192.176 48.272 190.432 48.528 188.704 48.528ZM211.297 48.528C209.249 48.528 207.569 48.16 206.257 47.424C204.945 46.656 203.953 45.52 203.281 44.016C202.641 42.512 202.321 40.608 202.321 38.304V24.384H210.865V38.544C210.865 39.312 210.961 39.952 211.153 40.464C211.377 40.976 211.713 41.36 212.161 41.616C212.609 41.872 213.169 42 213.841 42C214.609 42 215.281 41.824 215.857 41.472C216.465 41.088 216.929 40.56 217.249 39.888C217.601 39.184 217.777 38.368 217.777 37.44V24.384H226.321V48H217.969V43.68H218.737C218.033 45.248 217.041 46.448 215.761 47.28C214.513 48.112 213.025 48.528 211.297 48.528ZM240.605 48.528C237.341 48.528 234.973 47.712 233.501 46.08C232.029 44.416 231.293 41.92 231.293 38.592V14.16H239.837V38.304C239.837 39.008 239.933 39.616 240.125 40.128C240.349 40.64 240.685 41.024 241.133 41.28C241.613 41.536 242.205 41.664 242.909 41.664C243.229 41.664 243.549 41.648 243.869 41.616C244.221 41.584 244.557 41.536 244.877 41.472L244.781 48C244.141 48.192 243.469 48.32 242.765 48.384C242.093 48.48 241.373 48.528 240.605 48.528ZM247.74 20.304V12.576H256.716V20.304H247.74ZM247.98 48V24.384H256.524V48H247.98ZM274.344 48.528C271.464 48.528 268.968 48.032 266.856 47.04C264.776 46.016 263.176 44.576 262.056 42.72C260.936 40.864 260.376 38.672 260.376 36.144C260.376 33.712 260.904 31.584 261.96 29.76C263.048 27.904 264.52 26.464 266.376 25.44C268.264 24.384 270.408 23.856 272.808 23.856C275.208 23.856 277.272 24.352 279 25.344C280.728 26.336 282.056 27.76 282.984 29.616C283.944 31.44 284.424 33.584 284.424 36.048V37.92H267.528V33.888H278.184L277.416 34.512C277.416 32.784 277.048 31.504 276.312 30.672C275.576 29.808 274.536 29.376 273.192 29.376C272.2 29.376 271.336 29.616 270.6 30.096C269.896 30.544 269.352 31.216 268.968 32.112C268.584 33.008 268.392 34.128 268.392 35.472V35.904C268.392 37.408 268.6 38.624 269.016 39.552C269.464 40.48 270.152 41.168 271.08 41.616C272.008 42.032 273.176 42.24 274.584 42.24C275.8 42.24 277.064 42.064 278.376 41.712C279.72 41.328 280.904 40.784 281.928 40.08L284.04 45.696C282.824 46.56 281.336 47.248 279.576 47.76C277.816 48.272 276.072 48.528 274.344 48.528ZM294.644 48L284.275 24.384H293.252L299.204 39.84H297.572L303.812 24.384H312.212L301.652 48H294.644ZM140.304 87L124.896 53.16H134.304L145.344 78.792H142.656L153.696 53.16H162.768L147.312 87H140.304ZM173.751 87.528C170.871 87.528 168.375 87.032 166.263 86.04C164.183 85.016 162.583 83.576 161.463 81.72C160.343 79.864 159.783 77.672 159.783 75.144C159.783 72.712 160.311 70.584 161.367 68.76C162.455 66.904 163.927 65.464 165.783 64.44C167.671 63.384 169.815 62.856 172.215 62.856C174.615 62.856 176.679 63.352 178.407 64.344C180.135 65.336 181.463 66.76 182.391 68.616C183.351 70.44 183.831 72.584 183.831 75.048V76.92H166.935V72.888H177.591L176.823 73.512C176.823 71.784 176.455 70.504 175.719 69.672C174.983 68.808 173.943 68.376 172.599 68.376C171.607 68.376 170.743 68.616 170.007 69.096C169.303 69.544 168.759 70.216 168.375 71.112C167.991 72.008 167.799 73.128 167.799 74.472V74.904C167.799 76.408 168.007 77.624 168.423 78.552C168.871 79.48 169.559 80.168 170.487 80.616C171.415 81.032 172.583 81.24 173.991 81.24C175.207 81.24 176.471 81.064 177.783 80.712C179.127 80.328 180.311 79.784 181.335 79.08L183.447 84.696C182.231 85.56 180.743 86.248 178.983 86.76C177.223 87.272 175.479 87.528 173.751 87.528ZM199.708 87.528C196.124 87.528 193.468 86.696 191.74 85.032C190.012 83.368 189.148 80.856 189.148 77.496V69.672H184.732V63.384H189.148V56.52H197.692V63.384H204.412V69.672H197.692V77.208C197.692 78.392 197.964 79.272 198.508 79.848C199.084 80.392 199.98 80.664 201.196 80.664C201.58 80.664 201.996 80.616 202.444 80.52C202.924 80.424 203.452 80.312 204.028 80.184L205.18 86.328C204.444 86.712 203.58 87 202.588 87.192C201.628 87.416 200.668 87.528 199.708 87.528ZM216.306 87V60.36H205.554V53.16H235.89V60.36H225.138V87H216.306ZM247.719 87.528C244.839 87.528 242.343 87.032 240.231 86.04C238.151 85.016 236.551 83.576 235.431 81.72C234.311 79.864 233.751 77.672 233.751 75.144C233.751 72.712 234.279 70.584 235.335 68.76C236.423 66.904 237.895 65.464 239.751 64.44C241.639 63.384 243.783 62.856 246.183 62.856C248.583 62.856 250.647 63.352 252.375 64.344C254.103 65.336 255.431 66.76 256.359 68.616C257.319 70.44 257.799 72.584 257.799 75.048V76.92H240.903V72.888H251.559L250.791 73.512C250.791 71.784 250.423 70.504 249.687 69.672C248.951 68.808 247.911 68.376 246.567 68.376C245.575 68.376 244.711 68.616 243.975 69.096C243.271 69.544 242.727 70.216 242.343 71.112C241.959 72.008 241.767 73.128 241.767 74.472V74.904C241.767 76.408 241.975 77.624 242.391 78.552C242.839 79.48 243.527 80.168 244.455 80.616C245.383 81.032 246.551 81.24 247.959 81.24C249.175 81.24 250.439 81.064 251.751 80.712C253.095 80.328 254.279 79.784 255.303 79.08L257.415 84.696C256.199 85.56 254.711 86.248 252.951 86.76C251.191 87.272 249.447 87.528 247.719 87.528ZM270.888 87.528C269.448 87.528 268.056 87.432 266.712 87.24C265.4 87.048 264.2 86.76 263.112 86.376C262.024 85.992 261.048 85.528 260.184 84.984L262.152 79.464C262.952 79.912 263.832 80.312 264.792 80.664C265.784 81.016 266.808 81.288 267.864 81.48C268.92 81.672 269.944 81.768 270.936 81.768C272.12 81.768 272.968 81.608 273.48 81.288C273.992 80.936 274.248 80.488 274.248 79.944C274.248 79.464 274.072 79.096 273.72 78.84C273.4 78.584 272.936 78.408 272.328 78.312L267 77.448C265.016 77.096 263.48 76.376 262.392 75.288C261.304 74.168 260.76 72.712 260.76 70.92C260.76 69.256 261.224 67.832 262.152 66.648C263.112 65.432 264.408 64.504 266.04 63.864C267.704 63.192 269.608 62.856 271.752 62.856C272.904 62.856 274.04 62.952 275.16 63.144C276.28 63.304 277.352 63.576 278.376 63.96C279.4 64.312 280.328 64.792 281.16 65.4L279.048 70.824C278.44 70.376 277.72 69.992 276.888 69.672C276.056 69.352 275.192 69.096 274.296 68.904C273.432 68.68 272.632 68.568 271.896 68.568C270.584 68.568 269.656 68.744 269.112 69.096C268.568 69.448 268.296 69.896 268.296 70.44C268.296 70.856 268.44 71.208 268.728 71.496C269.016 71.752 269.464 71.928 270.072 72.024L275.4 72.936C277.448 73.256 279.016 73.96 280.104 75.048C281.224 76.104 281.784 77.544 281.784 79.368C281.784 81.096 281.336 82.568 280.44 83.784C279.544 85 278.28 85.928 276.648 86.568C275.016 87.208 273.096 87.528 270.888 87.528ZM297.443 87.528C293.859 87.528 291.203 86.696 289.475 85.032C287.747 83.368 286.883 80.856 286.883 77.496V69.672H282.466V63.384H286.883V56.52H295.427V63.384H302.147V69.672H295.427V77.208C295.427 78.392 295.699 79.272 296.243 79.848C296.819 80.392 297.715 80.664 298.931 80.664C299.315 80.664 299.731 80.616 300.179 80.52C300.659 80.424 301.187 80.312 301.763 80.184L302.915 86.328C302.179 86.712 301.315 87 300.323 87.192C299.363 87.416 298.403 87.528 297.443 87.528Z" fill="#0350FE"/>
<rect width="103.628" height="103.08" rx="13" fill="#0350FE"/>
<rect x="21.9319" y="32.3495" width="16.4489" height="54.2813" rx="5" fill="white"/>
<rect x="43.8638" y="15.9006" width="16.4489" height="70.7302" rx="5" fill="white"/>
<rect x="65.7954" y="54.2814" width="16.4489" height="32.3495" rx="5" fill="white"/>
</svg>
